<?xml version="1.0"?>
<svg xmlns="http://www.w3.org/2000/svg" id="Capa_1" enable-background="new 0 0 511.984 511.984" height="512px" viewBox="0 0 511.984 511.984" width="512px" class="hovered-paths"><g><path d="m33.763 435.992h-17.763c-8.291 0-16 6.709-16 15s7.709 15 16 15h17.763c6.213 17.422 22.707 30 42.237 30s36.024-12.578 42.237-30h65.526c6.213 17.422 22.707 30 42.237 30s36.024-12.578 42.237-30h65.526c6.213 17.422 22.707 30 42.237 30s36.024-12.578 42.237-30h42.552l-4.395 4.395c-5.859 5.859-5.859 15.352 0 21.211 2.93 2.93 6.768 4.395 10.605 4.395s7.676-1.465 10.605-4.395l29.982-29.982c1.392-1.388 2.496-3.051 3.259-4.896 1.516-3.666 1.516-7.789 0-11.455-.764-1.846-1.868-3.508-3.259-4.896l-29.982-29.982c-5.859-5.859-15.352-5.859-21.211 0s-5.859 15.352 0 21.211l4.395 4.395h-42.552c-4.532-12.708-14.529-22.705-27.237-27.237v-103.148c14.125-20.757 60-90.72 60-124.616 0-41.353-33.647-75-75-75s-75 33.647-75 75c0 33.896 45.875 103.859 60 124.616v103.147c-12.708 4.532-22.705 14.529-27.237 27.237h-65.526c-4.532-12.708-14.529-22.705-27.237-27.237v-193.147c14.125-20.757 60-90.72 60-124.616 0-41.353-33.647-75-75-75s-75 33.647-75 75c0 33.896 45.875 103.859 60 124.616v193.147c-12.708 4.532-22.705 14.529-27.237 27.237h-65.526c-4.532-12.708-14.529-22.705-27.237-27.237v-43.147c14.125-20.757 60-90.72 60-124.616 0-41.353-33.647-75-75-75s-76 33.647-76 75c0 33.896 46.875 103.859 61 124.616v43.147c-12.707 4.532-22.704 14.529-27.236 27.237zm342.237-270c8.284 0 15 6.716 15 15s-6.716 15-15 15-15-6.716-15-15 6.716-15 15-15zm-150-90c8.284 0 15 6.716 15 15s-6.716 15-15 15-15-6.716-15-15 6.716-15 15-15zm-150 150c8.284 0 15 6.716 15 15s-6.716 15-15 15-15-6.716-15-15 6.716-15 15-15z" data-original="#000000" class="active-path" data-old_color="#000000" fill="#00B020"/></g> </svg>
