<?xml version="1.0" encoding="UTF-8"?>
<svg xmlns="http://www.w3.org/2000/svg" xmlns:xlink="http://www.w3.org/1999/xlink" width="16pt" height="16pt" viewBox="0 0 16 16" version="1.1">
<g id="surface1">
<path style=" stroke:none;fill-rule:nonzero;fill:#4681EA;fill-opacity:1;" d="M 14.070312 12.734375 C 14.023438 12.703125 13.667969 12.453125 13.3125 11.703125 C 12.664062 10.328125 12.527344 8.386719 12.527344 7 C 12.527344 6.996094 12.527344 6.988281 12.527344 6.984375 C 12.519531 5.152344 11.421875 3.574219 9.851562 2.867188 L 9.851562 1.78125 C 9.851562 0.800781 9.054688 0 8.074219 0 L 7.925781 0 C 6.945312 0 6.148438 0.800781 6.148438 1.78125 L 6.148438 2.867188 C 4.574219 3.574219 3.472656 5.164062 3.472656 7 C 3.472656 8.386719 3.335938 10.328125 2.6875 11.703125 C 2.332031 12.453125 1.976562 12.703125 1.929688 12.734375 C 1.734375 12.824219 1.636719 13.035156 1.679688 13.25 C 1.726562 13.46875 1.929688 13.617188 2.152344 13.617188 L 5.585938 13.617188 C 5.605469 14.933594 6.679688 16 8 16 C 9.320312 16 10.394531 14.933594 10.414062 13.617188 L 13.847656 13.617188 C 14.070312 13.617188 14.273438 13.46875 14.320312 13.25 C 14.363281 13.035156 14.265625 12.824219 14.070312 12.734375 Z M 7.085938 1.78125 C 7.085938 1.316406 7.460938 0.9375 7.925781 0.9375 L 8.074219 0.9375 C 8.539062 0.9375 8.914062 1.316406 8.914062 1.78125 L 8.914062 2.5625 C 8.621094 2.5 8.3125 2.46875 8 2.46875 C 7.6875 2.46875 7.378906 2.5 7.085938 2.5625 Z M 8 15.0625 C 7.199219 15.0625 6.542969 14.417969 6.523438 13.617188 L 9.476562 13.617188 C 9.457031 14.417969 8.800781 15.0625 8 15.0625 Z M 9.886719 12.679688 C 9.886719 12.679688 3.21875 12.679688 3.21875 12.679688 C 3.300781 12.550781 3.382812 12.410156 3.464844 12.246094 C 4.09375 11.007812 4.410156 9.242188 4.410156 7 C 4.410156 5.019531 6.019531 3.40625 8 3.40625 C 9.976562 3.40625 11.589844 5.019531 11.589844 7.003906 C 11.589844 7.007812 11.589844 7.015625 11.589844 7.019531 C 11.589844 9.253906 11.910156 11.011719 12.535156 12.246094 C 12.617188 12.410156 12.699219 12.550781 12.78125 12.679688 Z M 9.886719 12.679688 "/>
</g>
</svg>
